<svg xmlns="http://www.w3.org/2000/svg" xmlns:xlink="http://www.w3.org/1999/xlink" width="1024" height="1024">
	<path fill="#FCFCFC" d="M0 0L1024 0L1024 1024L0 1024L0 0Z"/>
	<path fill="#F4C5A9" d="M78.1476 628.086C91.8772 627.85 105.586 626.669 119.253 625.42L119.314 625.875C120.02 631.526 119.673 637.286 120.247 642.952C121.505 655.361 124.506 667.856 127.791 679.869C111.374 682.072 94.5394 682.241 78.0018 683.113C78.098 664.788 77.6208 646.4 78.1476 628.086Z"/>
	<path fill="#F4C5A9" d="M78.1128 539.046C82.4644 539.009 86.8925 538.402 91.2331 538.06C105.418 536.942 119.758 535.099 133.935 534.378C127.086 548.779 119.883 575.188 119.012 590.926C105.593 592.877 91.859 593.222 78.3491 594.43Q78.4282 566.737 78.1128 539.046Z"/>
	<path fill="#F4C5A9" d="M138.515 713.703C139.916 714.071 140.161 714.013 140.959 715.295C142.594 717.922 143.716 721.148 144.986 723.978C147.492 729.559 150.119 735.222 153.2 740.505C156.464 746.103 166.54 759.375 168.164 764.134C167.065 764.532 166.1 764.797 164.942 764.955C148.475 765.736 132.035 768.215 115.562 769.281C103.291 770.076 90.7534 769.36 78.5608 770.575C77.1796 768.636 78.1329 723.3 78.0192 716.866C84.3038 716.186 90.914 716.512 97.2501 716.345C110.935 715.984 124.935 715.509 138.515 713.703Z"/>
	<path fill="#F4C5A9" d="M882.504 573.375C903.374 565.55 928.049 560.129 950.043 556.733C949.989 579.244 950.515 601.744 950.397 624.252C925.455 626.495 901.75 635.384 877.222 639.499C878.309 635.19 878.586 630.455 879.13 626.037Q882.218 599.796 882.504 573.375Z"/>
	<path fill="#F4C5A9" d="M863.454 478.537C870.1 476.295 876.638 473.737 883.318 471.603Q905.641 464.656 928.414 459.368C935.505 457.69 942.862 455.39 950.177 455.402Q949.84 487.276 950.005 519.15C926.056 522.472 901.781 529.081 878.985 537.124C877.951 535.148 875.84 518.983 875.045 515.228C872.326 502.386 867.667 490.86 863.454 478.537Z"/>
	<path fill="#F4C5A9" d="M193.564 435.687C193.632 436.071 193.832 436.455 193.766 436.839C193.438 438.765 183.152 453.044 181.195 455.834C173.222 467.197 165.377 478.529 157.824 490.181C156.226 492.646 153.499 495.678 152.429 498.314C127.841 501.353 103.219 503.601 78.5531 505.818C77.2414 499.489 77.9868 491.937 77.9939 485.433Q77.943 467.689 78.1722 449.947C105.189 447.765 131.866 445.71 158.737 441.896C170.305 440.255 182.244 438.585 193.564 435.687Z"/>
	<path fill="#F4C5A9" d="M868.167 679.058C888.296 674.128 908.474 668.867 928.917 665.411C935.874 664.235 943.022 662.902 950.092 662.807C950.374 672.795 950.124 682.822 950.14 692.817C950.157 703.293 950.45 713.859 949.967 724.321C926.126 725.516 901.838 730.038 878.666 735.63C867.223 738.392 850.035 744.131 838.759 744.773L838.541 744.742C840.508 743.136 841.843 740.913 843.039 738.707C845.733 733.735 847.705 728.075 849.973 722.877C853.75 714.22 857.886 705.575 861.221 696.744C862.841 692.457 865.163 682.016 868.167 679.058Z"/>
	<path fill="#F4C5A9" d="M193.473 795.778C194.833 796.369 215.911 817.249 219.345 820.437C224.033 824.789 229.86 828.158 235.122 831.775C238.804 834.306 242.262 837.12 245.949 839.655L246.168 840.441L245.624 840.822C235.719 841.924 225.971 844.276 216.115 845.728Q185.149 850.357 153.933 852.772C135.132 854.369 116.083 854.83 97.2213 855.237C90.985 855.372 84.6194 854.937 78.4169 855.273C79.186 838.382 78.1885 821.333 78.6382 804.41C88.0204 805.211 98.2352 804.533 107.642 804.135C136.521 802.914 164.829 799.418 193.473 795.778Z"/>
	<path fill="#F4C5A9" d="M225.389 339.974C224.807 353.642 223.586 367.218 219.822 380.44C218.309 385.753 215.344 391.46 214.396 396.818Q197.621 400.656 180.708 403.837Q163.796 407.018 146.773 409.538Q129.75 412.058 112.641 413.912Q95.5325 415.767 78.3647 416.953C78.2132 406.022 78.3156 395.074 78.2449 384.14C78.1987 376.991 77.7787 369.739 78.272 362.611C94.5897 361.929 111.595 359.344 127.758 357.033C143.945 354.719 160.258 352.674 176.353 349.803C192.762 346.876 209.032 343.178 225.389 339.974Z"/>
	<path fill="#F4C5A9" d="M534.783 104.756C553.73 91.7651 572.805 80.6374 593.246 70.2338C599.434 67.084 605.91 63.2396 612.59 61.2873C620.294 59.0355 638.368 60.209 647.248 60.1729L706.596 59.9882C719.535 59.9703 732.609 60.3483 745.519 59.4097C731.581 65.4738 716.945 69.9634 702.927 75.9004Q687.329 82.394 672.05 89.6066Q656.772 96.8193 641.845 104.735Q626.919 112.651 612.377 121.254Q597.835 129.856 583.71 139.126C573.243 146.009 562.574 152.727 553.059 160.919C547.568 152.35 536.501 115.671 534.783 104.756Z"/>
	<path fill="#F4C5A9" d="M802.094 394.445C818.914 388.238 835.286 380.828 852.254 375.019C883.882 364.191 917.484 356.587 950.345 350.642Q950.559 384.578 950.165 418.512C914.989 423.282 880.411 432.653 846.914 444.233C844.667 442.932 834.029 426.041 831.102 422.51C822.615 412.271 812.401 402.819 802.094 394.445Z"/>
	<path fill="#F4C5A9" d="M945.809 866.204C947.192 866.066 948.593 865.716 949.851 866.443C950.803 871.875 950.22 878.192 950.253 883.742L950.463 919.058C927.433 920.512 904.143 923.701 881.467 927.953C870.949 929.926 860.454 933.542 849.834 934.669C842.058 935.494 834.045 935.099 826.223 935.076L785.371 934.843C758.252 934.738 730.832 935.977 703.758 934.646L696.305 934.5C708.857 927.077 730.493 918.815 744.547 913.455Q756.632 908.76 768.873 904.491Q781.114 900.222 793.498 896.383Q805.881 892.545 818.391 889.142Q830.901 885.739 843.522 882.776Q856.143 879.813 868.861 877.293Q881.578 874.773 894.375 872.7Q907.173 870.626 920.036 869.002Q932.898 867.378 945.809 866.204Z"/>
	<path fill="#F4C5A9" d="M353.446 59.8268L353.551 60.1527C344.38 66.8221 329.618 72.7515 318.987 77.6449C301.869 85.5235 284.652 93.5959 267.103 100.469C257.176 104.357 246.951 107.573 236.937 111.241C209.087 121.442 180.098 131.056 151.006 137.038C136.518 140.017 121.975 143.162 107.376 145.529C100.547 146.636 83.1058 147.643 78.0482 149.728C77.1163 130.963 77.8734 111.992 77.5556 93.1827C85.0223 92.5169 92.5635 90.3985 99.8674 88.7801Q133.885 81.3598 166.971 70.5173C175.057 67.8815 189.036 61.6558 196.616 60.6501C208.519 59.071 221.721 60.1538 233.75 60.1647Q272.617 60.5138 311.484 60.1323C325.453 60.1348 339.519 61.146 353.446 59.8268Z"/>
	<path fill="#F4C5A9" d="M730.895 322.586C744.196 316.72 756.459 308.811 769.675 302.842C801.768 288.347 833.946 274.993 868.12 266.078C895.387 258.964 922.649 254.995 950.469 251.031C950.527 272.572 951.172 294.366 950.407 315.879C942.067 317.284 933.665 318.199 925.338 319.714C898.341 324.623 870.733 331.452 844.79 340.385C828.253 346.078 811.858 352.501 795.653 359.083C787.903 362.231 780.284 365.896 772.416 368.723C772.353 368.741 772.291 368.771 772.226 368.777C769.133 369.055 765.109 364.219 763.023 362.078C755.346 354.202 748.604 345.938 741.955 337.201C738.436 332.578 735.172 326.408 730.895 322.586Z"/>
	<path fill="#F4C5A9" d="M288.654 866.266C294.859 867.224 302.208 872.298 307.931 875.074C315.803 878.892 324.801 883.127 333.183 885.536C353.907 891.491 375.166 896.753 396.226 901.412C402.759 902.857 413.212 902.801 418.935 905.673C409.618 912.025 351.697 932.859 340.43 934.451C331.626 935.696 322.18 935.013 313.282 935.021L264.754 935.041L146.933 935.043C124 935.062 101.021 934.791 78.0964 935.395C79.3896 921.495 78.6378 903.849 78.3853 889.64C83.4555 890.157 88.7795 889.784 93.8748 889.733C103.876 889.633 113.831 889.476 123.822 889.012Q151.778 887.84 179.603 884.887Q207.428 881.933 235.007 877.21C247.053 875.092 259.096 872.62 271.057 870.066C276.922 868.814 282.737 867.245 288.654 866.266Z"/>
	<path fill="#F4C5A9" d="M403.418 177.386L403.606 177.377L403.854 178.412L404.014 177.903C403.977 178.072 403.937 178.24 403.903 178.41C401.849 188.714 408.439 226.523 404.48 233.151C385.528 242.871 366.826 252.932 346.913 260.58C346.842 252.274 346.538 244.437 348.677 236.336C341.81 244.212 336.203 253.456 331.273 262.661C329.86 265.299 328.845 268.465 327.304 270.957C322.403 271.318 315.213 275.641 310.342 277.455C301.58 280.718 292.656 283.86 283.8 286.862Q258.841 295.123 233.47 302.016C229.539 302.969 225.671 304.075 221.794 305.229C214.792 307.591 207.072 308.892 199.853 310.531C180.949 314.824 162.001 317.735 142.838 320.555C121.37 323.715 99.5854 326.624 77.9327 328.109Q77.742 300.319 78.122 272.531C84.9881 272.43 92.0418 271.391 98.8786 270.698C117.191 268.843 135.059 266.398 153.179 263.148C167.336 260.609 181.419 258.035 195.43 254.75C205.247 252.447 214.903 249.633 224.659 247.109Q251.709 240.365 278.189 231.648Q304.669 222.931 330.436 212.289C355.401 201.761 379.213 189.468 403.418 177.386Z"/>
	<path fill="#F4C5A9" d="M811.537 788.795C835.77 782.101 860.16 777.196 884.837 772.53C896.354 770.352 907.844 767.9 919.415 766.031C929.656 764.377 939.976 763.305 950.222 761.731C950.701 782.798 951.267 804.381 950.053 825.426C929.011 825.956 907.592 830.355 886.902 834.087C871.319 836.897 855.561 839.629 840.136 843.193Q828.196 845.931 816.346 849.032Q804.495 852.132 792.745 855.593Q780.994 859.053 769.354 862.869Q757.715 866.686 746.197 870.855Q734.679 875.025 723.293 879.543Q711.907 884.061 700.664 888.924Q689.422 893.788 678.332 898.991Q667.243 904.194 656.317 909.733C641.073 917.61 625.883 925.673 611.482 935.031C558.432 934.988 505.363 935.828 452.316 935.416C469.187 932.124 488.593 923.314 505.457 917.875C509.107 916.698 512.698 914.419 515.996 912.459C516.517 912.149 516.287 912.247 516.838 912.108C523.889 913.2 541.568 911.662 549.21 911.108C591.187 908.066 632.687 897.518 669.776 877.248C680.37 871.458 690.532 864.671 700.521 857.907C700.97 858.636 701.125 859.094 701.988 859.316C706.648 860.512 716.541 855.655 721.089 853.954C746.271 844.536 771.519 829.795 790.648 810.673C795.851 805.472 806.454 792.291 811.135 789.062C811.267 788.97 811.403 788.884 811.537 788.795Z"/>
	<path fill="#F4C5A9" d="M661.875 243.068C662.038 243.003 662.201 242.94 662.363 242.873C668.769 240.214 674.737 235.8 680.695 232.246C692.769 225.045 705.105 217.817 717.727 211.619Q728.797 206.087 740.091 201.025Q751.384 195.964 762.881 191.382Q774.377 186.8 786.056 182.707Q797.735 178.613 809.576 175.015Q821.417 171.416 833.399 168.32Q845.382 165.223 857.483 162.633Q869.585 160.043 881.785 157.966Q893.985 155.888 906.262 154.325C920.689 152.565 935.622 150.898 950.173 150.962C951.272 172.7 950.278 194.654 950.511 216.427Q944.664 216.869 938.829 217.449Q932.994 218.029 927.174 218.746Q921.355 219.464 915.554 220.319Q909.752 221.174 903.973 222.166Q898.194 223.158 892.44 224.286Q886.685 225.414 880.96 226.678Q875.234 227.942 869.539 229.341Q863.845 230.739 858.185 232.272Q852.525 233.805 846.903 235.472Q841.281 237.138 835.7 238.937Q830.119 240.735 824.582 242.665Q819.045 244.595 813.555 246.656Q808.065 248.716 802.625 250.906Q797.186 253.095 791.799 255.413Q786.413 257.73 781.083 260.174Q775.753 262.619 770.482 265.188Q751.024 274.636 732.16 285.221C726.16 288.582 720.269 292.583 714.156 295.679C706.371 283.024 693.097 266.484 681.897 256.935C675.701 251.651 668.854 247.231 661.875 243.068Z"/>
	<path fill="#F4C5A9" d="M575.041 191.319Q588.855 181.022 603.138 171.385Q617.42 161.749 632.14 152.794Q646.86 143.84 661.984 135.587Q677.108 127.335 692.604 119.802C704.11 114.154 715.547 108.482 727.397 103.574C747.848 95.1038 768.915 88.1438 789.939 81.2805C816.318 72.6694 845.248 64.0531 872.831 60.6257C884.867 59.1301 897.611 59.9506 909.759 60.0616L950.998 60.1079L950.494 115.014C919.507 115.007 889.299 120.102 859.043 126.391C834.316 131.531 809.588 137.612 785.624 145.623C771.207 150.443 756.973 156.236 742.909 162.001C732.616 166.22 721.876 170.413 711.959 175.408Q686.367 188.152 661.803 202.78C649.901 209.979 638.213 218.249 626.023 224.88L625.583 224.915C612.871 219.052 583.682 201.974 574.844 192.039L575.041 191.319Z"/>
	<path fill="#F4C5A9" d="M77.878 184.002C98.0449 182.959 118.747 179.292 138.561 175.511C148.369 173.64 158.311 171.985 168.011 169.638C182.634 166.101 197.148 161.758 211.632 157.69C221.749 154.848 232.037 152.306 242.01 148.99C252.006 145.666 261.828 141.509 271.67 137.751Q317.367 120.713 361.204 99.3383Q384.842 87.8397 407.918 75.2497C415.257 71.2034 427.098 62.5865 434.529 60.4544C440.111 58.8527 478.693 60.0864 487.783 60.0478C499.06 60 510.388 59.3146 521.654 59.5068C523.537 59.539 525.823 59.3881 527.461 60.3458L527.136 61.5025C527.121 61.5072 527.101 61.5054 527.09 61.5165C523.341 65.0493 516.985 67.5163 512.519 70.3093L471.543 96.4116L470.954 96.7478C463.012 101.196 453.836 103.227 445.778 107.756C440.17 110.907 435.956 115.567 430.839 119.338C429.092 120.626 424.906 122.59 423.891 124.206Q415.367 129.435 406.713 134.446Q398.059 139.456 389.28 144.246Q380.502 149.035 371.605 153.6Q362.707 158.165 353.697 162.502Q344.687 166.84 335.569 170.947Q326.452 175.054 317.233 178.928Q308.014 182.803 298.699 186.442Q289.385 190.081 279.981 193.482Q270.578 196.884 261.09 200.045Q251.603 203.206 242.039 206.126Q232.475 209.045 222.839 211.721Q213.204 214.397 203.504 216.827Q193.804 219.257 184.045 221.44Q174.286 223.623 164.475 225.557Q154.664 227.492 144.807 229.176Q134.95 230.861 125.053 232.295C109.382 234.467 93.6869 237.119 77.862 237.728C77.3306 219.859 77.6405 201.88 77.878 184.002Z"/>
	<path fill="#ED4C2C" d="M511.389 95.8697C516.389 90.0489 521.485 84.1157 527.049 78.8294C524.258 83.0577 521.982 87.4579 519.693 91.966C522.965 94.3208 529.512 93.3717 533.433 93.1862C533.62 97.0857 534.204 100.899 534.783 104.756C536.501 115.671 547.568 152.35 553.059 160.919C555.579 169.126 567.54 186.884 575.041 191.319L574.844 192.039C583.682 201.974 612.871 219.052 625.583 224.915L626.023 224.88C627.583 226.602 657.762 241.548 661.875 243.068C668.854 247.231 675.701 251.651 681.897 256.935C693.097 266.484 706.371 283.024 714.156 295.679C715.736 299.707 728.259 321.225 730.895 322.586C735.172 326.408 738.436 332.578 741.955 337.201C748.604 345.938 755.346 354.202 763.023 362.078C765.109 364.219 769.133 369.055 772.226 368.777C772.291 368.771 772.353 368.741 772.416 368.723C772.339 370.499 774.166 371.967 775.363 373.259C779.385 377.599 797.248 391.884 802.094 394.445C812.401 402.819 822.615 412.271 831.102 422.51C834.029 426.041 844.667 442.932 846.914 444.233C848.398 449.044 852.152 454.042 854.445 458.632C856.05 461.848 861.299 476.972 863.454 478.537C867.667 490.86 872.326 502.386 875.045 515.228C875.84 518.983 877.951 535.148 878.985 537.124C881.058 545.619 882.979 564.809 882.504 573.375Q882.218 599.796 879.13 626.037C878.586 630.455 878.309 635.19 877.222 639.499C876.45 640.148 876.133 640.667 875.858 641.613C874.758 645.4 874.465 649.666 873.733 653.559C872.145 661.998 870.253 670.721 868.167 679.058C865.163 682.016 862.841 692.457 861.221 696.744C857.886 705.575 853.75 714.22 849.973 722.877C847.705 728.075 845.733 733.735 843.039 738.707C841.843 740.913 840.508 743.136 838.541 744.742L838.759 744.773Q831.65 757.444 823.608 769.545C821.271 773.134 812.164 785.17 811.264 788.22L811.62 788.219L811.488 788.646L811.537 788.795C811.403 788.884 811.267 788.97 811.135 789.062C806.454 792.291 795.851 805.472 790.648 810.673C771.519 829.795 746.271 844.536 721.089 853.954C716.541 855.655 706.648 860.512 701.988 859.316C701.125 859.094 700.97 858.636 700.521 857.907C690.532 864.671 680.37 871.458 669.776 877.248C632.687 897.518 591.187 908.066 549.21 911.108C541.568 911.662 523.889 913.2 516.838 912.108C522.158 909.096 527.455 906.215 532.477 902.708C548.152 891.38 561.332 878.478 573.058 863.123C611.03 813.401 612.996 751.353 604.996 691.863C602.41 698.666 601.471 706.045 598.864 712.93C591.756 731.699 576.657 753.052 563.278 768.211C569.891 712.192 553.475 653.192 524.431 605.387C519.95 598.013 514.636 591.04 509.629 584.011C515.617 630.094 495.017 654.232 481.912 694.994C479.496 702.51 476.654 710.976 476.218 718.866C472.881 711.944 468.787 705.381 465.467 698.439C459.156 685.245 456.117 670.709 454.47 656.251C449.671 666.648 445.479 677.152 442.798 688.316C432.472 731.315 441.285 776.107 464.179 813.552C438.318 802.724 417.928 789.443 402.393 765.524C399.603 761.228 397.367 756.648 394.871 752.184C394.99 764.271 395.595 775.625 397.439 787.579C404.199 831.397 427.744 867.15 463.248 893.181C474.007 900.394 484.875 906.671 496.911 911.552C487.638 910.901 478.31 910.731 469.056 909.928C453.244 908.556 436.859 905.818 421.443 902.104C420.766 903.593 420.348 904.723 418.935 905.673C413.212 902.801 402.759 902.857 396.226 901.412C375.166 896.753 353.907 891.491 333.183 885.536C324.801 883.127 315.803 878.892 307.931 875.074C302.208 872.298 294.859 867.224 288.654 866.266L288.951 865.964L288.82 865.269C281.355 861.137 273.754 857.493 266.458 852.969C261.122 849.66 256.245 845.503 250.696 842.552C249.01 841.656 247.509 841.117 245.624 840.822L246.168 840.441L245.949 839.655C242.262 837.12 238.804 834.306 235.122 831.775C229.86 828.158 224.033 824.789 219.345 820.437C215.911 817.249 194.833 796.369 193.473 795.778L193.809 795.022C192.221 790.485 185.369 785.07 182.078 781.382C178.405 777.267 175.629 772.365 171.897 768.303C169.416 765.604 168.555 765.116 164.942 764.955C166.1 764.797 167.065 764.532 168.164 764.134C166.54 759.375 156.464 746.103 153.2 740.505C150.119 735.222 147.492 729.559 144.986 723.978C143.716 721.148 142.594 717.922 140.959 715.295C140.161 714.013 139.916 714.071 138.515 713.703C138.938 713.545 139.297 713.243 139.668 712.989C139.429 707.5 129.849 687.604 127.791 679.869C124.506 667.856 121.505 655.361 120.247 642.952C119.673 637.286 120.02 631.526 119.314 625.875L119.253 625.42C116.264 614.843 119.154 601.85 119.012 590.926C119.883 575.188 127.086 548.779 133.935 534.378C133.95 534.337 133.968 534.296 133.98 534.254C137.568 521.753 149.516 509.871 152.429 498.314C153.499 495.678 156.226 492.646 157.824 490.181C165.377 478.529 173.222 467.197 181.195 455.834C183.152 453.044 193.438 438.765 193.766 436.839C193.832 436.455 193.632 436.071 193.564 435.687C202.321 427.668 209.757 408.168 214.396 396.818C215.344 391.46 218.309 385.753 219.822 380.44C223.586 367.218 224.807 353.642 225.389 339.974C227.931 331.68 225.321 314.496 223.404 305.83L221.794 305.229C225.671 304.075 229.539 302.969 233.47 302.016Q258.841 295.123 283.8 286.862C292.656 283.86 301.58 280.718 310.342 277.455C315.213 275.641 322.403 271.318 327.304 270.957C328.845 268.465 329.86 265.299 331.273 262.661C336.203 253.456 341.81 244.212 348.677 236.336C346.538 244.437 346.842 252.274 346.913 260.58C366.826 252.932 385.528 242.871 404.48 233.151C408.439 226.523 401.849 188.714 403.903 178.41C403.937 178.24 403.977 178.072 404.014 177.903L403.854 178.412L403.606 177.377L403.418 177.386C404.434 172.396 404.874 167.275 405.893 162.266C407.697 153.398 411.629 142.099 416.699 134.543C418.863 131.318 421.887 128.648 424.167 125.477L423.891 124.206C424.906 122.59 429.092 120.626 430.839 119.338C435.956 115.567 440.17 110.907 445.778 107.756C453.836 103.227 463.012 101.196 470.954 96.7478L471.543 96.4116C475.946 99.8457 502.433 92.4859 511.389 95.8697Z"/>
	<path fill="#F9EAE1" d="M519.693 91.966C522.965 94.3208 529.512 93.3717 533.433 93.1862C533.62 97.0857 534.204 100.899 534.783 104.756C536.501 115.671 547.568 152.35 553.059 160.919C555.579 169.126 567.54 186.884 575.041 191.319L574.844 192.039C583.682 201.974 612.871 219.052 625.583 224.915L626.023 224.88C627.583 226.602 657.762 241.548 661.875 243.068C668.854 247.231 675.701 251.651 681.897 256.935C693.097 266.484 706.371 283.024 714.156 295.679C715.736 299.707 728.259 321.225 730.895 322.586C735.172 326.408 738.436 332.578 741.955 337.201C748.604 345.938 755.346 354.202 763.023 362.078C765.109 364.219 769.133 369.055 772.226 368.777C772.291 368.771 772.353 368.741 772.416 368.723C772.339 370.499 774.166 371.967 775.363 373.259C779.385 377.599 797.248 391.884 802.094 394.445C812.401 402.819 822.615 412.271 831.102 422.51C834.029 426.041 844.667 442.932 846.914 444.233C848.398 449.044 852.152 454.042 854.445 458.632C856.05 461.848 861.299 476.972 863.454 478.537C867.667 490.86 872.326 502.386 875.045 515.228C875.84 518.983 877.951 535.148 878.985 537.124C881.058 545.619 882.979 564.809 882.504 573.375Q882.218 599.796 879.13 626.037C878.586 630.455 878.309 635.19 877.222 639.499C876.45 640.148 876.133 640.667 875.858 641.613C874.758 645.4 874.465 649.666 873.733 653.559C872.145 661.998 870.253 670.721 868.167 679.058C865.163 682.016 862.841 692.457 861.221 696.744C857.886 705.575 853.75 714.22 849.973 722.877C847.705 728.075 845.733 733.735 843.039 738.707C841.843 740.913 840.508 743.136 838.541 744.742L838.759 744.773Q831.65 757.444 823.608 769.545C821.271 773.134 812.164 785.17 811.264 788.22L811.62 788.219L811.488 788.646L811.537 788.795C811.403 788.884 811.267 788.97 811.135 789.062C806.454 792.291 795.851 805.472 790.648 810.673C771.519 829.795 746.271 844.536 721.089 853.954C716.541 855.655 706.648 860.512 701.988 859.316C701.125 859.094 700.97 858.636 700.521 857.907C719.402 844.381 737.586 827.968 752.407 810.061C758.51 802.688 763.957 794.726 769.423 786.874C778.193 774.274 786.255 761.26 792.584 747.249C798.893 733.283 805.023 718.894 808.759 703.988C821.365 653.701 811.069 599.878 790.193 553.302C776.747 523.301 753.782 490.044 762.079 455.525C761.538 456.012 761.017 456.495 760.515 457.022C755.284 462.512 751.816 470.003 749.638 477.192C738.453 514.108 755.116 554.23 762.648 590.088Q764.025 596.679 764.82 603.365Q765.615 610.051 765.823 616.781C766.151 626.839 765.712 645.557 758.063 653.226C755.896 655.398 752.864 656.704 749.784 656.668C745.644 656.619 741.455 654.517 738.697 651.471C732.498 644.626 733.64 629.931 732.676 621.154C732.118 616.082 731.255 610.966 729.743 606.085C723.192 584.943 707.147 571.181 700.29 550.864C689.93 520.172 699.105 497.958 705.675 468.423Q707.631 459.686 708.726 450.8Q709.821 441.914 710.045 432.964C711.066 380.399 691.457 348.715 656.401 312.171C659.16 316.192 661.176 320.149 662.616 324.811C673.353 359.569 653.784 413.362 637.2 444.495C633.99 450.52 629.757 457.235 622.781 459.185C618.158 460.477 612.443 459.905 608.25 457.528C602.917 454.505 600.134 449.096 598.98 443.244C595.108 423.605 605.8 386.073 607.818 364.206C608.985 351.57 607.92 337.582 605.428 325.165C598.287 289.583 579.012 260.664 554.823 234.309C537.801 215.762 518.85 198.953 511.762 173.781C504.38 147.563 506.31 115.96 519.693 91.966Z"/>
	<path fill="#F9EAE1" d="M471.543 96.4116C475.946 99.8457 502.433 92.4859 511.389 95.8697C485.2 127.336 460.843 162.527 464.916 205.592C466.538 222.742 472.629 239.141 475.304 256.146C482.888 304.35 467.752 354.286 436.89 391.823C427.326 403.456 415.7 412.377 404.61 422.423C377.819 446.691 353.567 476.262 344.365 511.861C341.281 523.792 339.922 535.805 339.225 548.077C338.912 553.598 338.862 559.083 338.889 564.611C338.953 577.62 340.586 594.376 331.656 605.057C329.589 607.53 326.862 609.44 323.582 609.752C320.991 609.998 318.201 609.47 316.196 607.737C306.354 599.225 301.126 568.452 300.547 555.833C299.871 541.123 303.153 527.808 304.605 513.347Q304.768 511.82 304.896 510.291Q305.025 508.761 305.119 507.228Q305.213 505.696 305.272 504.162Q305.331 502.628 305.356 501.093Q305.38 499.558 305.37 498.023Q305.36 496.487 305.316 494.953Q305.271 493.418 305.192 491.885Q305.112 490.352 304.999 488.821Q304.885 487.29 304.736 485.762Q304.588 484.234 304.405 482.71Q304.222 481.185 304.005 479.665Q303.788 478.146 303.537 476.631Q303.285 475.117 303 473.608Q302.714 472.1 302.395 470.598Q302.075 469.096 301.722 467.602Q301.369 466.108 300.982 464.623Q300.595 463.137 300.174 461.661Q299.754 460.184 299.301 458.717Q298.847 457.251 298.361 455.795Q297.874 454.339 297.355 452.894Q296.835 451.449 296.284 450.016Q295.732 448.584 295.148 447.164Q294.564 445.744 293.948 444.338Q293.332 442.931 292.685 441.539Q292.038 440.147 291.359 438.77Q290.68 437.393 289.971 436.032Q289.261 434.67 288.521 433.325Q287.781 431.98 287.011 430.652Q286.24 429.324 285.44 428.014Q284.64 426.704 283.811 425.412Q282.982 424.12 282.123 422.847Q281.265 421.574 280.378 420.321C276.131 414.197 271.163 408.517 266.402 402.789C276.701 429.342 270.528 472.17 262.911 499.337C259.138 512.796 254.06 526.011 248.418 538.793C240.225 557.354 230.31 575.248 222.916 594.142C204.14 642.124 204.537 693.697 223.056 741.718C247.431 804.922 304.408 857.203 365.698 884.039C383.781 891.956 402.347 897.275 421.443 902.104C420.766 903.593 420.348 904.723 418.935 905.673C413.212 902.801 402.759 902.857 396.226 901.412C375.166 896.753 353.907 891.491 333.183 885.536C324.801 883.127 315.803 878.892 307.931 875.074C302.208 872.298 294.859 867.224 288.654 866.266L288.951 865.964L288.82 865.269C281.355 861.137 273.754 857.493 266.458 852.969C261.122 849.66 256.245 845.503 250.696 842.552C249.01 841.656 247.509 841.117 245.624 840.822L246.168 840.441L245.949 839.655C242.262 837.12 238.804 834.306 235.122 831.775C229.86 828.158 224.033 824.789 219.345 820.437C215.911 817.249 194.833 796.369 193.473 795.778L193.809 795.022C192.221 790.485 185.369 785.07 182.078 781.382C178.405 777.267 175.629 772.365 171.897 768.303C169.416 765.604 168.555 765.116 164.942 764.955C166.1 764.797 167.065 764.532 168.164 764.134C166.54 759.375 156.464 746.103 153.2 740.505C150.119 735.222 147.492 729.559 144.986 723.978C143.716 721.148 142.594 717.922 140.959 715.295C140.161 714.013 139.916 714.071 138.515 713.703C138.938 713.545 139.297 713.243 139.668 712.989C139.429 707.5 129.849 687.604 127.791 679.869C124.506 667.856 121.505 655.361 120.247 642.952C119.673 637.286 120.02 631.526 119.314 625.875L119.253 625.42C116.264 614.843 119.154 601.85 119.012 590.926C119.883 575.188 127.086 548.779 133.935 534.378C133.95 534.337 133.968 534.296 133.98 534.254C137.568 521.753 149.516 509.871 152.429 498.314C153.499 495.678 156.226 492.646 157.824 490.181C165.377 478.529 173.222 467.197 181.195 455.834C183.152 453.044 193.438 438.765 193.766 436.839C193.832 436.455 193.632 436.071 193.564 435.687C202.321 427.668 209.757 408.168 214.396 396.818C215.344 391.46 218.309 385.753 219.822 380.44C223.586 367.218 224.807 353.642 225.389 339.974C227.931 331.68 225.321 314.496 223.404 305.83L221.794 305.229C225.671 304.075 229.539 302.969 233.47 302.016Q258.841 295.123 283.8 286.862C292.656 283.86 301.58 280.718 310.342 277.455C315.213 275.641 322.403 271.318 327.304 270.957C328.845 268.465 329.86 265.299 331.273 262.661C336.203 253.456 341.81 244.212 348.677 236.336C346.538 244.437 346.842 252.274 346.913 260.58C366.826 252.932 385.528 242.871 404.48 233.151C408.439 226.523 401.849 188.714 403.903 178.41C403.937 178.24 403.977 178.072 404.014 177.903L403.854 178.412L403.606 177.377L403.418 177.386C404.434 172.396 404.874 167.275 405.893 162.266C407.697 153.398 411.629 142.099 416.699 134.543C418.863 131.318 421.887 128.648 424.167 125.477L423.891 124.206C424.906 122.59 429.092 120.626 430.839 119.338C435.956 115.567 440.17 110.907 445.778 107.756C453.836 103.227 463.012 101.196 470.954 96.7478L471.543 96.4116Z"/>
	<path fill="#F4C5A9" d="M397.997 273.46C399.58 277.101 392.104 296.005 390.319 300.53C387.622 307.366 385.27 313.054 378.865 317.125C376.111 318.875 373.47 320.46 371.119 322.757Q363.303 308.365 356.159 293.629C370.094 287.002 384.956 281.822 397.997 273.46Z"/>
	<path fill="#FCFCFC" d="M404.48 233.151C405.779 237.402 400.902 267.917 398.964 272.799C398.155 273.443 398.52 273.306 397.997 273.46C384.956 281.822 370.094 287.002 356.159 293.629C351.983 282.78 347.922 272.287 346.913 260.58C366.826 252.932 385.528 242.871 404.48 233.151Z"/>
	<path fill="#F4C5A9" d="M326.351 306.627C330.539 318.637 335.191 330.027 340.498 341.585C322.916 352.719 303.817 362 285.53 371.941C282.58 362.22 275.613 348.497 270.073 339.94C267.963 336.68 264.461 333.771 262.955 330.24C272.207 327.171 323.297 311.091 326.351 306.627Z"/>
	<path fill="#FCFCFC" d="M233.47 302.016Q258.841 295.123 283.8 286.862C292.656 283.86 301.58 280.718 310.342 277.455C315.213 275.641 322.403 271.318 327.304 270.957C323.49 282.72 322.833 294.655 326.351 306.627C323.297 311.091 272.207 327.171 262.955 330.24C260.492 329.674 257.917 324.435 256.62 322.402C250.563 312.907 242.954 307.797 233.47 302.016Z"/>
	<path fill="#ED4C2C" d="M348.677 236.336C346.538 244.437 346.842 252.274 346.913 260.58C347.922 272.287 351.983 282.78 356.159 293.629Q363.303 308.365 371.119 322.757C377.575 336.298 381.703 350.39 376.396 365.125C370.184 382.373 352.582 394.276 349.026 412.251C348.024 417.318 348.302 422.697 348.485 427.833C343.519 425.248 339.525 421.672 337.763 416.178C333.126 401.717 344.832 387.638 346.332 373.596C347.496 362.704 344.498 351.622 340.498 341.585C335.191 330.027 330.539 318.637 326.351 306.627C322.833 294.655 323.49 282.72 327.304 270.957C328.845 268.465 329.86 265.299 331.273 262.661C336.203 253.456 341.81 244.212 348.677 236.336Z"/>
</svg>
